# xmcd CD database file
#
# Track frame offsets:
#	150
#	17370
#	31105
#	50972
#	64939
#	80742
#	96407
#	110982
#	127052
#	142745
#	160430
#	173625
#	186017
#
# Disc length: 2688 seconds
#
# Revision: 0
# Processed by: cddbd v1.5.2PL0 Copyright (c) Steve Scherf et al.
# Submitted via: jetAudio 7
#
DISCID=b60a7e0d
DTITLE=ÉRICK E NANDO - TÔ QUERENDO MAIS
DYEAR=1900
DGENRE=Country
TTITLE0=MINHA VIDA É TER VOCÊ
TTITLE1=TÁ DIFÍCIL DE ENCONTRAR
TTITLE2=PORQUE GOSTA DE MIM
TTITLE3=MOLHANDO O GOGÓ
TTITLE4=QUE MARAVILHA É TER VOCÊ
TTITLE5=O QUE É QUE TEM DE MAL COM A GENTE?
TTITLE6=VOCÊ É MEU ANJO
TTITLE7=NA LUZ DO LUAR
TTITLE8=TÔ QUERENDO MAIS
TTITLE9=FOI ENGANO
TTITLE10=RALA, RALA
TTITLE11=PAIXÃO RECOLHIDA
TTITLE12=LOUCO PRA CHEGAR
EXTD=
EXTT0=
EXTT1=
EXTT2=
EXTT3=
EXTT4=
EXTT5=
EXTT6=
EXTT7=
EXTT8=
EXTT9=
EXTT10=
EXTT11=
EXTT12=
PLAYORDER=
